<svg xmlns="http://www.w3.org/2000/svg" width="419" height="552" viewBox="0 0 419 552">
    <path d="M244 228L294.847 161H373V228H244Z"/>
    <path d="M244 228L294.847 161H373V228H244Z"/>
    <path d="M107 411L174 322V513H107V411Z"/>
    <path d="M183 361L236.975 297L304 294V361H183Z"/>
    <path d="M183 361L236.975 297L304 294V361H183Z"/>
    <path d="M119 96H295.5L119 334V96Z"/>
    <path d="M412.001 0.6166C413.368 0.421456 414.634 1.37133 414.829 2.73818L418.009 25.0124C418.204 26.3792 417.254 27.6455 415.887 27.8406C414.521 28.0357 413.254 27.0859 413.059 25.719L410.733 9.41975L4.30746 551.204L0.30777 548.204L406.733 6.41936L390.434 8.74609C389.067 8.94124 387.8 7.99136 387.605 6.62451C387.41 5.25766 388.36 3.9914 389.727 3.7963L412.001 0.6166Z"/>
    <path d="M238.964 230.5L293.606 158.5H368V61H83V443H102V409.328L179 307.045V361.865L235.77 294.551L306.5 291.386V363.5H179V443H368V230.5H238.964ZM368 163.5V225.5H249.036L296.088 163.5H368ZM373 448L174 448L174 513H107L107 448L78 448V56H373V448ZM112 453V508H169V453H112ZM169 443V336.955L112 412.672V443H169ZM188.379 358.5H301.5V296.614L238.181 299.449L188.379 358.5ZM114 91H305.433L114 349.136V91ZM124 101V318.864L285.567 101H124Z"/>
</svg>