<svg width="419" height="552" viewBox="0 0 419 552" fill="none" xmlns="http://www.w3.org/2000/svg">
<mask id="path-1-inside-1_3_64" fill="white">
<path d="M244 228L294.847 161H373V228H244Z"/>
<path d="M244 228L294.847 161H373V228H244Z"/>
<path d="M107 411L174 322V513H107V411Z"/>
<path d="M183 361L236.975 297L304 294V361H183Z"/>
<path d="M183 361L236.975 297L304 294V361H183Z"/>
<path d="M119 96H295.5L119 334V96Z"/>
<path fill-rule="evenodd" clip-rule="evenodd" d="M412.001 0.6166C413.368 0.421456 414.634 1.37133 414.829 2.73818L418.009 25.0124C418.204 26.3792 417.254 27.6455 415.887 27.8406C414.521 28.0357 413.254 27.0859 413.059 25.719L410.733 9.41975L4.30746 551.204L0.30777 548.204L406.733 6.41936L390.434 8.74609C389.067 8.94124 387.8 7.99136 387.605 6.62451C387.41 5.25766 388.36 3.9914 389.727 3.7963L412.001 0.6166Z"/>
<path fill-rule="evenodd" clip-rule="evenodd" d="M238.964 230.5L293.606 158.5H368V61H83V443H102V409.328L179 307.045V361.865L235.77 294.551L306.5 291.386V363.5H179V443H368V230.5H238.964ZM368 163.5V225.5H249.036L296.088 163.5H368ZM373 448L174 448L174 513H107L107 448L78 448V56H373V448ZM112 453V508H169V453H112ZM169 443V336.955L112 412.672V443H169ZM188.379 358.5H301.5V296.614L238.181 299.449L188.379 358.5ZM114 91H305.433L114 349.136V91ZM124 101V318.864L285.567 101H124Z"/>
</mask>
<path d="M412.849 3.02086C412.81 2.74749 412.557 2.55751 412.284 2.59653L407.829 3.23247C407.556 3.2715 407.366 3.52474 407.405 3.79812C407.444 4.07149 407.697 4.26146 407.97 4.22244L411.93 3.65716L412.495 7.61701C412.534 7.89039 412.788 8.08036 413.061 8.04134C413.334 8.00231 413.524 7.74907 413.485 7.47569L412.849 3.02086ZM244 228L243.602 227.698L242.993 228.5H244V228ZM294.847 161V160.5H294.598L294.448 160.698L294.847 161ZM373 161H373.5V160.5H373V161ZM373 228V228.5H373.5V228H373ZM183 361L182.618 360.678L181.924 361.5H183V361ZM236.975 297L236.953 296.501L236.734 296.51L236.593 296.678L236.975 297ZM304 294H304.5V293.477L303.978 293.501L304 294ZM304 361V361.5H304.5V361H304ZM2.70759 550.004L412.754 3.39156L411.955 2.79148L1.90765 549.404L2.70759 550.004ZM373 447.5H78V448.5H373V447.5ZM244.398 228.302L295.245 161.302L294.448 160.698L243.602 227.698L244.398 228.302ZM294.847 161.5H373V160.5H294.847V161.5ZM372.5 161V228H373.5V161H372.5ZM373 227.5H244V228.5H373V227.5ZM174 512.5H107V513.5H174V512.5ZM183.382 361.322L237.358 297.322L236.593 296.678L182.618 360.678L183.382 361.322ZM236.998 297.499L304.022 294.499L303.978 293.501L236.953 296.501L236.998 297.499ZM303.5 294V361H304.5V294H303.5ZM304 360.5H183V361.5H304V360.5ZM78 56V55H77V56H78ZM373 56H374V55H373V56ZM373 448L373 449L374 449V448H373ZM78 448H77V449L78 449L78 448ZM107 411L106.201 410.399L106 410.666V411H107ZM174 322H175V319.009L173.201 321.399L174 322ZM119 96V95H118V96H119ZM295.5 96L296.303 96.5957L297.487 95H295.5V96ZM119 334H118V337.027L119.803 334.596L119 334ZM414.829 2.73818L415.819 2.59686L415.819 2.59686L414.829 2.73818ZM412.001 0.6166L412.142 1.60656L412.142 1.60656L412.001 0.6166ZM418.009 25.0124L417.019 25.1537L417.019 25.1537L418.009 25.0124ZM413.059 25.719L414.049 25.5777L414.049 25.5776L413.059 25.719ZM410.733 9.41975L411.722 9.27843L411.381 6.88844L409.933 8.81966L410.733 9.41975ZM4.30746 551.204L3.70738 552.004L4.50732 552.604L5.1074 551.804L4.30746 551.204ZM0.30777 548.204L-0.492169 547.604L-1.09225 548.403L-0.292314 549.004L0.30777 548.204ZM406.733 6.41936L407.533 7.01944L408.981 5.08822L406.591 5.42939L406.733 6.41936ZM390.434 8.74609L390.292 7.75613L390.292 7.75613L390.434 8.74609ZM389.727 3.7963L389.868 4.78627L389.868 4.78627L389.727 3.7963ZM238.964 230.5L238.168 229.895L236.95 231.5H238.964V230.5ZM293.606 158.5V157.5H293.109L292.809 157.895L293.606 158.5ZM368 158.5V159.5H369V158.5H368ZM368 61H369V60H368V61ZM83 61V60H82V61H83ZM83 443H82V444H83V443ZM102 443V444H103V443H102ZM102 409.328L101.201 408.727L101 408.994V409.328H102ZM179 307.045H180V304.054L178.201 306.443L179 307.045ZM179 361.865H178V364.602L179.764 362.51L179 361.865ZM235.77 294.551L235.725 293.552L235.288 293.572L235.006 293.907L235.77 294.551ZM306.5 291.386H307.5V290.34L306.455 290.387L306.5 291.386ZM306.5 363.5V364.5H307.5V363.5H306.5ZM179 363.5V362.5H178V363.5H179ZM179 443H178V444H179V443ZM368 443V444H369V443H368ZM368 230.5H369V229.5H368V230.5ZM368 163.5H369V162.5H368V163.5ZM368 225.5V226.5H369V225.5H368ZM249.036 225.5L248.239 224.895L247.021 226.5H249.036V225.5ZM296.088 163.5V162.5H295.591L295.291 162.895L296.088 163.5ZM174 448L174 447L173 447L173 448L174 448ZM107 448L108 448L108 447L107 447L107 448ZM112 508H111V509H112V508ZM112 453V452H111V453H112ZM169 508V509H170V508H169ZM169 453H170V452H169V453ZM169 336.955H170V333.964L168.201 336.354L169 336.955ZM169 443V444H170V443H169ZM112 412.672L111.201 412.07L111 412.337V412.672H112ZM112 443H111V444H112V443ZM301.5 358.5V359.5H302.5V358.5H301.5ZM188.379 358.5L187.614 357.855L186.227 359.5H188.379V358.5ZM301.5 296.614H302.5V295.569L301.455 295.615L301.5 296.614ZM238.181 299.449L238.136 298.45L237.699 298.469L237.416 298.804L238.181 299.449ZM114 91V90H113V91H114ZM305.433 91L306.236 91.5956L307.419 90H305.433V91ZM114 349.136H113V352.163L114.803 349.732L114 349.136ZM124 318.864H123V321.891L124.803 319.46L124 318.864ZM124 101V100H123V101H124ZM285.567 101L286.37 101.596L287.554 100H285.567V101ZM78 57H373V55H78V57ZM372 56V448H374V56H372ZM79 448V56H77V448H79ZM107.799 411.601L174.799 322.601L173.201 321.399L106.201 410.399L107.799 411.601ZM173 322V513H175V322H173ZM108 513V411H106V513H108ZM119 97H295.5V95H119V97ZM294.697 95.4043L118.197 333.404L119.803 334.596L296.303 96.5957L294.697 95.4043ZM120 334V96H118V334H120ZM415.819 2.59686C415.546 0.683275 413.773 -0.646564 411.86 -0.373362L412.142 1.60656C412.963 1.48948 413.722 2.05939 413.839 2.87951L415.819 2.59686ZM418.999 24.8711L415.819 2.59686L413.839 2.8795L417.019 25.1537L418.999 24.8711ZM416.029 28.8306C417.942 28.5574 419.272 26.7847 418.999 24.8711L417.019 25.1537C417.136 25.9738 416.566 26.7335 415.746 26.8506L416.029 28.8306ZM412.069 25.8603C412.342 27.7739 414.115 29.1038 416.029 28.8306L415.746 26.8506C414.926 26.9677 414.166 26.3978 414.049 25.5777L412.069 25.8603ZM409.743 9.56107L412.069 25.8603L414.049 25.5776L411.722 9.27843L409.743 9.56107ZM5.1074 551.804L411.532 10.0198L409.933 8.81966L3.50752 550.604L5.1074 551.804ZM-0.292314 549.004L3.70738 552.004L4.90755 550.404L0.907854 547.404L-0.292314 549.004ZM405.933 5.81928L-0.492169 547.604L1.10771 548.804L407.533 7.01944L405.933 5.81928ZM390.575 9.73606L406.874 7.40932L406.591 5.42939L390.292 7.75613L390.575 9.73606ZM386.615 6.76583C386.889 8.67943 388.661 10.0093 390.575 9.73605L390.292 7.75613C389.472 7.87322 388.712 7.30329 388.595 6.48318L386.615 6.76583ZM389.586 2.80633C387.672 3.07947 386.342 4.85224 386.615 6.76583L388.595 6.48318C388.478 5.66307 389.048 4.90332 389.868 4.78627L389.586 2.80633ZM411.86 -0.373364L389.586 2.80634L389.868 4.78627L412.142 1.60656L411.86 -0.373364ZM367 61V158.5H369V61H367ZM83 62H368V60H83V62ZM84 443V61H82V443H84ZM102 442H83V444H102V442ZM180 443V363.5H178V443H180ZM368 442H179V444H368V442ZM367 230.5V443H369V230.5H367ZM367 163.5V225.5H369V163.5H367ZM368 224.5H249.036V226.5H368V224.5ZM249.832 226.105L296.884 164.105L295.291 162.895L248.239 224.895L249.832 226.105ZM296.088 164.5H368V162.5H296.088V164.5ZM113 508V453H111V508H113ZM169 507H112V509H169V507ZM168 453V508H170V453H168ZM112 454H169V452H112V454ZM168 336.955V443H170V336.955H168ZM112.799 413.273L169.799 337.557L168.201 336.354L111.201 412.07L112.799 413.273ZM113 443V412.672H111V443H113ZM169 442H112V444H169V442ZM301.5 357.5H188.379V359.5H301.5V357.5ZM300.5 296.614V358.5H302.5V296.614H300.5ZM238.226 300.448L301.545 297.613L301.455 295.615L238.136 298.45L238.226 300.448ZM189.143 359.145L238.945 300.093L237.416 298.804L187.614 357.855L189.143 359.145ZM125 318.864V101H123V318.864H125ZM284.764 100.404L123.197 318.268L124.803 319.46L286.37 101.596L284.764 100.404ZM124 102H285.567V100H124V102ZM292.809 157.895L238.168 229.895L239.761 231.105L294.402 159.105L292.809 157.895ZM368 157.5H293.606V159.5H368V157.5ZM101 409.328V443H103V409.328H101ZM178.201 306.443L101.201 408.727L102.799 409.93L179.799 307.646L178.201 306.443ZM180 361.865V307.045H178V361.865H180ZM235.006 293.907L178.236 361.22L179.764 362.51L236.535 295.196L235.006 293.907ZM306.455 290.387L235.725 293.552L235.815 295.55L306.545 292.385L306.455 290.387ZM307.5 363.5V291.386H305.5V363.5H307.5ZM179 364.5H306.5V362.5H179V364.5ZM238.964 231.5H368V229.5H238.964V231.5ZM174 449L373 449L373 447L174 447L174 449ZM175 513L175 448L173 448L173 513L175 513ZM106 448L106 513L108 513L108 448L106 448ZM78 449L107 449L107 447L78 447L78 449ZM305.433 90H114V92H305.433V90ZM114.803 349.732L306.236 91.5956L304.63 90.4043L113.197 348.54L114.803 349.732ZM113 91V349.136H115V91H113Z" fill="black" mask="url(#path-1-inside-1_3_64)"/>
</svg>
